<?xml version="1.0" encoding="UTF-8"?>
<svg width="800px" height="800px" viewBox="0 -4.5 20 20" version="1.1" xmlns="http://www.w3.org/2000/svg">
<path transform="translate(274 334)" d="m0 0c1.86-0 3.73-0.01 5.59-0.01 5.13-0.01 10.2-0.01 15.4 0.01 5.57 0 11.2-0 16.7-0.01 9.77-0.01 19.5-0.01 29.3 0 13.8 0.01 27.7 0.01 41.5 0 25.1-0.01 50.2-0.01 75.3 0.01 24.2 0.01 48.4 0.01 72.6 0.01h4.56 18.3 51.2 2.36c24.8 0 49.5 0.01 74.3 0.01 0.81 0 1.61 0.01 2.44 0.01 13 0 26.1 0 39.1 0.01 51.8 0.02 104 0.02 155 0.02h9.82 2.45 26.9c0.81-0.01 1.61-0.01 2.44-0.01 43.4 0 86.7 0.01 130 0.01 1.53 0 3.06 0.01 4.59 0.01h2.29 4.57 11.4 49.9 2.27 11.3c27.3 0 54.6 0 81.9 0.02 14.4 0.01 28.9 0.01 43.3 0 9.64 0 19.3 0.01 28.9 0.02h16.5c5-0.01 10 0 15 0.01 1.79 0 3.59 0 5.39-0.01 20.5-0.05 37.1 3.99 52.6 18.3 13.8 14.5 19.4 31.1 19.3 50.8-0.4 15.8-6.11 29.3-16.4 41.2-0.65 0.76-1.3 1.51-1.96 2.29-11 11.9-26 18.2-42 19.7-2.65 0.09-5.26 0.14-7.91 0.13-1.13 0-1.13 0-2.3 0.01h-7.61-5.54c-5.09 0.01-10.2 0.01-15.3 0.01-5.53-0.01-11.1 0-16.6 0-11 0.01-22 0.01-32.9 0.01-12.5 0.01-25 0.01-37.4 0.02-31.7 0.01-63.4 0.02-95.1 0.03-15.8 0-31.6 0-47.4 0.01-50.6 0.01-101 0.02-152 0.02h-7.26-14.6-17c-1.62 0-3.25 0.01-4.87 0.01-52.2 0-104 0.01-157 0.04-37.5 0.01-75.1 0.03-113 0.03h-2.34c-16.9 0.01-33.9 0.01-50.8 0.01h-18.2-4.52c-24 0-48.1 0.01-72.1 0.02-24.2 0.02-48.4 0.02-72.6 0.02-15-0.01-30-0.01-45.1 0.01-9.58 0.01-19.2 0.01-28.7 0-5.46-0.01-10.9-0.01-16.4 0.01-4.97 0.01-9.94 0-14.9-0.01-1.79 0-3.57 0-5.35 0.01-13.3 0.06-26.2-0.65-38.2-7.01-0.67-0.35-1.34-0.69-2.03-1.05-6.07-3.27-11-7.35-15.7-12.3-0.7-0.66-1.39-1.32-2.11-2-11.5-11.7-16.7-27.7-17.3-43.8 0.5-18.5 7.45-34.9 20.4-48.2 16.1-14.7 33.2-18.5 54.4-18.4z" fill="#FFFFFF"/>
<path transform="translate(268 734)" d="m0 0c1.17-0 2.34-0.01 3.55-0.01 3.23-0.01 6.45-0.01 9.68 0.01 3.52 0 7.04-0 10.6-0.01 6.16-0.01 12.3-0.01 18.5 0 9.16 0.01 18.3 0.01 27.5 0 16.4-0.01 32.7 0 49.1 0.01 14.3 0.01 28.6 0.01 43 0.01h2.88 11.6c36.2 0 72.4 0.01 109 0.03 32.1 0.02 64.3 0.02 96.4 0.02h6.19 3.09 15.4c1.01-0.01 2.03-0.01 3.07-0.01 26.9 0 53.7 0.01 80.6 0.01 2.89 0.01 5.78 0.01 8.67 0.01h5.75 40.1c17.2 0 34.4 0 51.7 0.02 9.11 0.01 18.2 0.01 27.3 0 6.08 0 12.2 0.01 18.2 0.02h10.4c3.73-0.01 7.47 0 11.2 0.01 1.6-0.01 1.6-0.01 3.25-0.01 17.6 0.09 32.8 6.32 45.8 18.3 13.8 14.5 19.4 31.1 19.3 50.8-0.4 15.8-6.12 29.3-16.4 41.2-0.64 0.76-1.29 1.51-1.95 2.29-11 11.9-26.1 18.3-42 19.7-3.85 0.14-7.71 0.14-11.6 0.14h-3.5c-3.19 0.01-6.39 0.01-9.59 0.01-3.48-0.01-6.96 0-10.4 0-6.9 0.01-13.8 0.01-20.7 0.01-8.27 0.01-16.5 0.01-24.8 0.02-20 0.01-40 0.02-59.9 0.03-9.45 0-18.9 0-28.4 0.01-32.4 0.01-64.7 0.02-97.1 0.02h-6.09-6.11-12.2c-1.01 0.01-2.02 0.01-3.07 0.01-32.8 0-65.7 0.01-98.5 0.04-34.7 0.02-69.4 0.04-104 0.04h-11.4-2.84c-15.1 0-30.2 0.01-45.3 0.03-15.2 0.01-30.4 0.01-45.5 0-9.01 0-18 0-27 0.02-6.03 0.01-12 0.01-18.1 0-3.43-0.01-6.86-0.01-10.3 0.01-32.3 0.09-32.3 0.09-45.7-7.01-0.67-0.35-1.33-0.69-2.02-1.05-6.07-3.27-11-7.35-15.7-12.3-0.69-0.66-1.38-1.32-2.1-2-11.5-11.7-16.7-27.7-17.3-43.8 0.5-18.5 7.46-34.9 20.4-48.2 13.8-12.6 29.5-18.5 48.2-18.4z" fill="#FFFFFF"/>
<path transform="translate(271 1134)" d="m0 0c1.46-0 2.92-0.01 4.39-0.01 3.98-0.02 7.97-0.01 12 0 4.31 0.01 8.63 0 12.9-0.01 8.43-0.02 16.9-0.01 25.3 0h20.6 2.96 5.96c18.6-0.01 37.2 0 55.8 0.01 15.9 0.02 31.9 0.01 47.8 0 18.5-0.02 37.1-0.02 55.6-0.01h5.93 2.95c6.85 0 13.7 0 20.5-0.01 8.34-0.01 16.7 0 25 0.01 4.26 0.01 8.51 0.01 12.8 0 3.9-0.01 7.8 0 11.7 0.01 1.41 0.01 2.81 0.01 4.22 0 19.2-0.09 36 5.72 50 19.1 13.8 14.5 19.4 31.5 18.9 51.1-0.67 18.2-9.15 33.6-22.2 46.1-15.4 13-33.3 16.5-52.9 16.4-1.44 0.01-2.87 0.01-4.31 0.02-3.89 0.01-7.79 0-11.7-0.01-4.22 0-8.44 0.01-12.7 0.02-8.25 0.01-16.5 0.01-24.7 0-6.71-0.01-13.4-0.01-20.1-0.01h-2.9c-1.94 0-3.89 0.01-5.83 0.01-18.2 0.01-36.4 0-54.6-0.02-15.6-0.01-31.2-0.01-46.8 0-18.2 0.02-36.3 0.02-54.4 0.02-1.94-0.01-3.87-0.01-5.81-0.01h-2.89c-6.69 0-13.4 0-20.1 0.01-8.16 0.01-16.3 0.01-24.5-0.01-4.16-0.01-8.32-0.01-12.5 0-3.81 0.01-7.63 0-11.4-0.01-2.02-0.01-4.04 0-6.05 0.01-11.5-0.07-22.8-1.59-33.1-7.02-0.67-0.35-1.34-0.7-2.03-1.05-6.07-3.27-11-7.35-15.7-12.3-0.7-0.66-1.39-1.32-2.1-2.01-11.5-11.7-16.7-27.7-17.3-43.8 0.5-18.5 7.46-34.9 20.4-48.2 14.8-13.5 30.9-18.5 50.8-18.4z" fill="#FFFFFF"/>
</svg>
